<svg width="25" height="24" viewBox="0 0 25 24" fill="none" xmlns="http://www.w3.org/2000/svg">
<g id="Socials" clip-path="url(#clip0_1431_9303)">
<path id="facebook" d="M24.5 12.2505C24.5 5.62313 19.1274 0.250488 12.5 0.250488C5.87264 0.250488 0.5 5.62313 0.5 12.2505C0.5 17.878 4.37456 22.6003 9.60128 23.8972V15.9177H7.12688V12.2505H9.60128V10.6703C9.60128 6.58601 11.4498 4.69289 15.4597 4.69289C16.22 4.69289 17.5318 4.84217 18.0685 4.99097V8.31497C17.7853 8.28521 17.2933 8.27033 16.6822 8.27033C14.7147 8.27033 13.9544 9.01577 13.9544 10.9535V12.2505H17.8741L17.2006 15.9177H13.9544V24.1627C19.8954 23.4451 24.5 18.3858 24.5 12.2505Z" fill="#0866FF"/>
</g>
<defs>
<clipPath id="clip0_1431_9303">
<rect width="24" height="24" fill="white" transform="translate(0.5)"/>
</clipPath>
</defs>
</svg>
