<svg width="107" height="102" viewBox="0 0 107 102" fill="none" xmlns="http://www.w3.org/2000/svg">
<path d="M105.334 51C105.334 43.3146 100.58 36.7507 93.8503 34.0614C93.9905 33.131 94.0925 32.1879 94.0925 31.2192C94.0925 21.7622 86.8913 13.9748 77.6764 13.0571C77.5617 6.37854 72.1322 1 65.4281 1C58.724 1 53.167 6.49325 53.167 13.261V88.739C53.167 95.5067 58.6603 101 65.4281 101C71.5714 101 76.644 96.4754 77.5362 90.587C86.8276 89.7331 94.0925 81.933 94.0925 72.4122C94.0925 70.9082 93.8886 69.4553 93.5444 68.0533C100.427 65.4405 105.334 58.8002 105.334 51Z" fill="url(#paint0_linear_1246_19649)"/>
<path d="M105.334 51C105.334 43.3146 100.58 36.7507 93.8503 34.0614C93.9905 33.131 94.0925 32.1879 94.0925 31.2192C94.0925 21.7622 86.8913 13.9748 77.6764 13.0571C77.5617 6.37854 72.1322 1 65.4281 1C58.724 1 53.167 6.49325 53.167 13.261V88.739C53.167 95.5067 58.6603 101 65.4281 101C71.5714 101 76.644 96.4754 77.5362 90.587C86.8276 89.7331 94.0925 81.933 94.0925 72.4122C94.0925 70.9082 93.8886 69.4553 93.5444 68.0533C100.427 65.4405 105.334 58.8002 105.334 51Z" stroke="#3B4356" stroke-width="1.5" stroke-linecap="round" stroke-linejoin="round"/>
<path d="M89.9893 62.2415C92.4365 65.1984 93.9022 68.9965 93.9022 73.1387C93.9022 82.5958 86.2295 90.2685 76.7724 90.2685C71.1262 90.2685 66.1299 87.541 63.0073 83.335" stroke="#3B4356" stroke-width="1.5" stroke-linecap="round" stroke-linejoin="round"/>
<path d="M89.9893 41.237C92.4365 38.2801 93.9022 34.482 93.9022 30.3397C93.9022 20.8827 86.2295 13.21 76.7724 13.21C71.1262 13.21 66.1299 15.9375 63.0073 20.1435" stroke="#3B4356" stroke-width="1.5" stroke-linecap="round" stroke-linejoin="round"/>
<path d="M82.7736 43.4038C77.4715 43.4038 73.1763 39.1086 73.1763 33.8065" stroke="#3B4356" stroke-width="1.5" stroke-linecap="round" stroke-linejoin="round"/>
<path d="M82.7736 61.6806C77.4715 61.6806 73.1763 65.9758 73.1763 71.2778" stroke="#3B4356" stroke-width="1.5" stroke-linecap="round" stroke-linejoin="round"/>
<path d="M1 51C1 58.6854 5.75404 65.2493 12.4836 67.9386C12.3434 68.869 12.2414 69.8121 12.2414 70.7808C12.2414 80.2378 19.4426 88.0252 28.6575 88.9429C28.7722 95.6215 34.2018 101 40.9058 101C47.6099 101 53.1669 95.5067 53.1669 88.739V13.261C53.1669 6.49325 47.6736 1 40.9058 1C34.7625 1 29.6899 5.5246 28.7977 11.4129C19.5063 12.2669 12.2414 20.067 12.2414 29.5878C12.2414 31.0918 12.4454 32.5447 12.7895 33.9467C5.90698 36.5595 1 43.1998 1 51Z" fill="url(#paint1_linear_1246_19649)"/>
<path d="M1 51C1 58.6854 5.75404 65.2493 12.4836 67.9386C12.3434 68.869 12.2414 69.8121 12.2414 70.7808C12.2414 80.2378 19.4426 88.0252 28.6575 88.9429C28.7722 95.6215 34.2017 101 40.9058 101C47.6099 101 53.1669 95.5067 53.1669 88.739V13.261C53.1669 6.49325 47.6736 1 40.9058 1C34.7625 1 29.6899 5.5246 28.7977 11.4129C19.5063 12.2669 12.2414 20.067 12.2414 29.5878C12.2414 31.0918 12.4454 32.5447 12.7895 33.9467C5.90698 36.5595 1 43.1998 1 51Z" stroke="#3B4356" stroke-width="1.5" stroke-linecap="round" stroke-linejoin="round"/>
<path d="M16.3464 39.7459C13.8993 36.789 12.4336 32.9909 12.4336 28.8486C12.4336 19.3916 20.1063 11.7189 29.5634 11.7189C35.2096 11.7189 40.2058 14.4464 43.3284 18.6523" stroke="#3B4356" stroke-width="1.5" stroke-linecap="round" stroke-linejoin="round"/>
<path d="M16.3464 60.7502C13.8993 63.7071 12.4336 67.5052 12.4336 71.6474C12.4336 81.1045 20.1063 88.7772 29.5634 88.7772C35.2096 88.7772 40.2058 86.0497 43.3284 81.8437" stroke="#3B4356" stroke-width="1.5" stroke-linecap="round" stroke-linejoin="round"/>
<path d="M23.5586 58.5961C28.8607 58.5961 33.1559 62.8913 33.1559 68.1934" stroke="#3B4356" stroke-width="1.5" stroke-linecap="round" stroke-linejoin="round"/>
<path d="M23.5586 40.3193C28.8607 40.3193 33.1559 36.0241 33.1559 30.7221" stroke="#3B4356" stroke-width="1.5" stroke-linecap="round" stroke-linejoin="round"/>
<path d="M71.2763 55.4281C73.7147 45.032 67.2637 34.6276 56.8675 32.1892C46.4714 29.7508 36.0669 36.2018 33.6285 46.5979C31.1901 56.9941 37.6411 67.3985 48.0373 69.8369C58.4335 72.2753 68.8379 65.8243 71.2763 55.4281Z" fill="#14A5F8"/>
<path d="M71.2763 55.4281C73.7147 45.032 67.2637 34.6276 56.8675 32.1892C46.4714 29.7508 36.0669 36.2018 33.6285 46.5979C31.1901 56.9941 37.6411 67.3985 48.0373 69.8369C58.4335 72.2753 68.8379 65.8243 71.2763 55.4281Z" stroke="#3B4356" stroke-width="1.5" stroke-linecap="round" stroke-linejoin="round"/>
<path d="M63.9373 46.9726H56.4303V39.4783H48.3879V46.9726H40.8809V55.0149H48.3879V62.5219H56.4303V55.0149H63.9373V46.9726Z" fill="white"/>
<path d="M63.9373 46.9726H56.4303V39.4783H48.3879V46.9726H40.8809V55.0149H48.3879V62.5219H56.4303V55.0149H63.9373V46.9726Z" stroke="#3B4356" stroke-width="1.5" stroke-linecap="round" stroke-linejoin="round"/>
<defs>
<linearGradient id="paint0_linear_1246_19649" x1="105.334" y1="51" x2="53.167" y2="51" gradientUnits="userSpaceOnUse">
<stop offset="0.03" stop-color="#A3A5AB"/>
<stop offset="0.45" stop-color="#A3A5AB" stop-opacity="0"/>
</linearGradient>
<linearGradient id="paint1_linear_1246_19649" x1="1" y1="51" x2="53.1669" y2="51" gradientUnits="userSpaceOnUse">
<stop offset="0.03" stop-color="#A3A5AB"/>
<stop offset="0.45" stop-color="#A3A5AB" stop-opacity="0"/>
</linearGradient>
</defs>
</svg>
