<svg width="107" height="102" viewBox="0 0 107 102" fill="none" xmlns="http://www.w3.org/2000/svg">
<path d="M105.293 51.0191C105.293 43.3366 100.541 36.7753 93.8142 34.087C93.9544 33.157 94.0563 32.2142 94.0563 31.2459C94.0563 21.7925 86.8579 14.008 77.6465 13.0907C77.5319 6.41472 72.1044 1.03825 65.4029 1.03825C58.7014 1.03825 53.1465 6.52939 53.1465 13.2946V88.7437C53.1465 95.5089 58.6377 101 65.4029 101C71.5438 101 76.6145 96.4771 77.5064 90.591C86.7942 89.7374 94.0563 81.9403 94.0563 72.4231C94.0563 70.9197 93.8525 69.4673 93.5085 68.0659C100.388 65.4541 105.293 58.8163 105.293 51.0191Z" fill="url(#paint0_linear_1246_19709)"/>
<path d="M105.293 51.0191C105.293 43.3366 100.541 36.7753 93.8142 34.087C93.9544 33.157 94.0563 32.2142 94.0563 31.2459C94.0563 21.7925 86.8579 14.008 77.6465 13.0907C77.5319 6.41472 72.1044 1.03825 65.4029 1.03825C58.7014 1.03825 53.1465 6.52939 53.1465 13.2946V88.7437C53.1465 95.5089 58.6377 101 65.4029 101C71.5438 101 76.6145 96.4771 77.5064 90.591C86.7942 89.7374 94.0563 81.9403 94.0563 72.4231C94.0563 70.9197 93.8525 69.4673 93.5085 68.0659C100.388 65.4541 105.293 58.8163 105.293 51.0191Z" stroke="#3B4356" stroke-width="1.5" stroke-linecap="round" stroke-linejoin="round"/>
<path d="M89.9673 62.269C92.4135 65.2248 93.8786 69.0214 93.8786 73.1621C93.8786 82.6155 86.2088 90.2853 76.7554 90.2853C71.1113 90.2853 66.117 87.5588 62.9956 83.3545" stroke="#3B4356" stroke-width="1.5" stroke-linecap="round" stroke-linejoin="round"/>
<path d="M89.9673 41.26C92.4135 38.3042 93.8786 34.5075 93.8786 30.3668C93.8786 20.9134 86.2088 13.2436 76.7554 13.2436C71.1113 13.2436 66.117 15.9701 62.9956 20.1744" stroke="#3B4356" stroke-width="1.5" stroke-linecap="round" stroke-linejoin="round"/>
<path d="M82.7421 43.4258C77.442 43.4258 73.1484 39.1323 73.1484 33.8323" stroke="#3B4356" stroke-width="1.5" stroke-linecap="round" stroke-linejoin="round"/>
<path d="M82.7421 61.6957C77.442 61.6957 73.1484 65.9892 73.1484 71.2893" stroke="#3B4356" stroke-width="1.5" stroke-linecap="round" stroke-linejoin="round"/>
<path d="M1 50.9809C1 58.6634 5.75221 65.2247 12.4792 67.9129C12.3391 68.843 12.2371 69.7858 12.2371 70.7541C12.2371 80.2075 19.4355 87.9919 28.6469 88.9093C28.7616 95.5853 34.1891 100.962 40.8906 100.962C47.5921 100.962 53.147 95.4706 53.147 88.7054V13.2563C53.147 6.49114 47.6558 1 40.8906 1C34.7496 1 29.6789 5.52285 28.7871 11.4089C19.4992 12.2626 12.2371 20.0597 12.2371 29.5769C12.2371 31.0802 12.441 32.5327 12.785 33.9341C5.9051 36.5459 1 43.1837 1 50.9809Z" fill="url(#paint1_linear_1246_19709)"/>
<path d="M1 50.9809C1 58.6634 5.75221 65.2247 12.4792 67.9129C12.3391 68.843 12.2371 69.7858 12.2371 70.7541C12.2371 80.2075 19.4355 87.9919 28.6469 88.9093C28.7616 95.5853 34.1891 100.962 40.8906 100.962C47.5921 100.962 53.147 95.4706 53.147 88.7054V13.2563C53.147 6.49114 47.6558 1 40.8906 1C34.7496 1 29.6789 5.52285 28.7871 11.4089C19.4992 12.2626 12.2371 20.0597 12.2371 29.5769C12.2371 31.0802 12.441 32.5327 12.785 33.9341C5.9051 36.5459 1 43.1837 1 50.9809Z" stroke="#3B4356" stroke-width="1.5" stroke-linecap="round" stroke-linejoin="round"/>
<path d="M16.3405 39.7311C13.8944 36.7753 12.4292 32.9786 12.4292 28.838C12.4292 19.3846 20.099 11.7148 29.5525 11.7148C35.1965 11.7148 40.1908 14.4412 43.3122 18.6456" stroke="#3B4356" stroke-width="1.5" stroke-linecap="round" stroke-linejoin="round"/>
<path d="M16.3405 60.7274C13.8944 63.6831 12.4292 67.4798 12.4292 71.6204C12.4292 81.0739 20.099 88.7436 29.5525 88.7436C35.1965 88.7436 40.1908 86.0172 43.3122 81.8128" stroke="#3B4356" stroke-width="1.5" stroke-linecap="round" stroke-linejoin="round"/>
<path d="M23.5498 58.5615C28.8499 58.5615 33.1434 62.855 33.1434 68.155" stroke="#3B4356" stroke-width="1.5" stroke-linecap="round" stroke-linejoin="round"/>
<path d="M23.5498 40.3044C28.8499 40.3044 33.1434 36.0108 33.1434 30.7108" stroke="#3B4356" stroke-width="1.5" stroke-linecap="round" stroke-linejoin="round"/>
<path d="M68.0651 50.8408L65.1347 53.771L53.1587 65.7598L41.1698 53.771L38.2395 50.8408C34.9397 47.541 34.9397 42.1645 38.2395 38.8647C39.8958 37.2085 42.0616 36.3803 44.2275 36.3803C46.3934 36.3803 48.5593 37.2085 50.2156 38.8647L53.1459 41.795L56.0762 38.8647C59.376 35.5522 64.7525 35.5522 68.0651 38.8647C71.3649 42.1645 71.3649 47.541 68.0651 50.8408Z" fill="#14A5F8"/>
<path d="M68.0651 50.8408L65.1347 53.771L53.1587 65.7598L41.1698 53.771L38.2395 50.8408C34.9397 47.541 34.9397 42.1645 38.2395 38.8647C39.8958 37.2085 42.0616 36.3803 44.2275 36.3803C46.3934 36.3803 48.5593 37.2085 50.2156 38.8647L53.1459 41.795L56.0762 38.8647C59.376 35.5522 64.7525 35.5522 68.0651 38.8647C71.3649 42.1645 71.3649 47.541 68.0651 50.8408Z" stroke="#3B4356" stroke-width="1.5" stroke-linecap="round" stroke-linejoin="round"/>
<defs>
<linearGradient id="paint0_linear_1246_19709" x1="105.293" y1="51.0191" x2="53.1465" y2="51.0191" gradientUnits="userSpaceOnUse">
<stop offset="0.03" stop-color="#A3A5AB"/>
<stop offset="0.45" stop-color="#A3A5AB" stop-opacity="0"/>
</linearGradient>
<linearGradient id="paint1_linear_1246_19709" x1="1.01274" y1="50.9681" x2="53.1597" y2="50.9681" gradientUnits="userSpaceOnUse">
<stop offset="0.03" stop-color="#A3A5AB"/>
<stop offset="0.45" stop-color="#A3A5AB" stop-opacity="0"/>
</linearGradient>
</defs>
</svg>
