<svg width="73" height="102" viewBox="0 0 73 102" fill="none" xmlns="http://www.w3.org/2000/svg">
<path d="M71.4578 35.0428C71.4578 16.2422 56.2156 1 37.415 1C18.6144 1 3.37219 16.2422 3.37219 35.0428C3.37219 38.2908 3.83777 41.4279 4.69134 44.4098L1 62.0686H7.20771L12.4843 82.7869L15.1669 83.1971C18.9913 83.7846 22.9044 83.1306 26.3409 81.3348L14.8566 101H54.841L67.0902 51.7372C69.8726 46.8042 71.4688 41.1175 71.4688 35.0539L71.4578 35.0428Z" fill="url(#paint0_linear_1246_19673)"/>
<path d="M71.4578 35.0428C71.4578 16.2422 56.2156 1 37.415 1C18.6144 1 3.37219 16.2422 3.37219 35.0428C3.37219 38.2908 3.83777 41.4279 4.69134 44.4098L1 62.0686H7.20771L12.4843 82.7869L15.1669 83.1971C18.9913 83.7846 22.9044 83.1306 26.3409 81.3348L14.8566 101H54.841L67.0902 51.7372C69.8726 46.8042 71.4688 41.1175 71.4688 35.0539L71.4578 35.0428Z" stroke="#3B4356" stroke-width="1.5" stroke-linecap="round" stroke-linejoin="round"/>
<path d="M49.1991 32.6816L46.6495 35.2312L36.2294 45.6624L25.7982 35.2312L23.2485 32.6816C20.3774 29.8105 20.3774 25.1326 23.2485 22.2615C24.6896 20.8204 26.5741 20.0999 28.4586 20.0999C30.3431 20.0999 32.2276 20.8204 33.6687 22.2615L36.2183 24.8111L38.7679 22.2615C41.6389 19.3793 46.317 19.3793 49.1991 22.2615C52.0813 25.1437 52.0702 29.8105 49.1991 32.6816Z" fill="#14A5F8"/>
<path d="M49.1991 32.6816L46.6495 35.2312L36.2294 45.6624L25.7982 35.2312L23.2485 32.6816C20.3774 29.8105 20.3774 25.1326 23.2485 22.2615C24.6896 20.8204 26.5741 20.0999 28.4586 20.0999C30.3431 20.0999 32.2276 20.8204 33.6687 22.2615L36.2183 24.8111L38.7679 22.2615C41.6389 19.3793 46.317 19.3793 49.1991 22.2615C52.0813 25.1437 52.0702 29.8105 49.1991 32.6816Z" stroke="#3B4356" stroke-width="1.5" stroke-linecap="round" stroke-linejoin="round"/>
<path d="M39.5437 45.6625C39.5437 51.194 32.8926 51.194 32.8926 56.7256C32.8926 62.2571 39.5437 62.2571 39.5437 67.7887C39.5437 73.3202 32.8926 73.3202 32.8926 78.8517C32.8926 84.3833 39.5437 84.3833 39.5437 89.9259C39.5437 95.4685 32.8926 95.4574 32.8926 101" stroke="#3B4356" stroke-width="1.5" stroke-linecap="round" stroke-linejoin="round"/>
<defs>
<linearGradient id="paint0_linear_1246_19673" x1="36.2178" y1="101" x2="36.2178" y2="1" gradientUnits="userSpaceOnUse">
<stop offset="0.03" stop-color="#A3A5AB"/>
<stop offset="0.44" stop-color="#A3A5AB" stop-opacity="0"/>
</linearGradient>
</defs>
</svg>
