<svg width="99" height="132" viewBox="0 0 99 132" fill="none" xmlns="http://www.w3.org/2000/svg">
<path d="M83.3669 33.5647C83.3669 28.5597 80.276 24.2919 75.8918 22.533C75.9823 21.9252 76.047 21.3174 76.047 20.6837C76.047 14.5277 71.3654 9.45805 65.3646 8.86315C65.2999 4.51774 61.7563 1.01295 57.398 1.01295C53.0396 1.01295 49.4185 4.58237 49.4185 8.99244V58.124C49.4185 62.5341 52.9879 66.1035 57.398 66.1035C61.3942 66.1035 64.692 63.1548 65.274 59.3267C71.3136 58.7706 76.0599 53.688 76.0599 47.5062C76.0599 46.5233 75.9306 45.5792 75.6978 44.661C80.1725 42.9539 83.3669 38.6343 83.3669 33.5647Z" fill="#14A5F8"/>
<path d="M83.3669 33.5647C83.3669 28.5597 80.276 24.2919 75.8918 22.533C75.9823 21.9252 76.047 21.3174 76.047 20.6837C76.047 14.5277 71.3654 9.45805 65.3646 8.86315C65.2999 4.51774 61.7563 1.01295 57.398 1.01295C53.0396 1.01295 49.4185 4.58237 49.4185 8.99244V58.124C49.4185 62.5341 52.9879 66.1035 57.398 66.1035C61.3942 66.1035 64.692 63.1548 65.274 59.3267C71.3136 58.7706 76.0599 53.688 76.0599 47.5062C76.0599 46.5233 75.9306 45.5792 75.6978 44.661C80.1725 42.9539 83.3669 38.6343 83.3669 33.5647Z" stroke="#3B4356" stroke-width="1.5" stroke-linecap="round" stroke-linejoin="round"/>
<path d="M73.3815 40.8846C74.9722 42.8116 75.9293 45.2817 75.9293 47.9717C75.9293 54.1277 70.9372 59.1198 64.7812 59.1198C61.1083 59.1198 57.8493 57.348 55.8188 54.6063" stroke="#3B4356" stroke-width="1.5" stroke-linecap="round" stroke-linejoin="round"/>
<path d="M73.3815 27.2148C74.9722 25.2878 75.9293 22.8177 75.9293 20.1276C75.9293 13.9717 70.9372 8.97961 64.7812 8.97961C61.1083 8.97961 57.8493 10.7514 55.8188 13.4931" stroke="#3B4356" stroke-width="1.5" stroke-linecap="round" stroke-linejoin="round"/>
<path d="M68.6753 28.6245C65.2222 28.6245 62.4287 25.831 62.4287 22.3779" stroke="#3B4356" stroke-width="1.5" stroke-linecap="round" stroke-linejoin="round"/>
<path d="M68.6753 40.5225C65.2222 40.5225 62.4287 43.316 62.4287 46.769" stroke="#3B4356" stroke-width="1.5" stroke-linecap="round" stroke-linejoin="round"/>
<path d="M15.4595 33.5388C15.4595 38.5438 18.5504 42.8116 22.9346 44.5704C22.8441 45.1783 22.7794 45.7861 22.7794 46.4198C22.7794 52.5758 27.461 57.6455 33.4618 58.2404C33.5265 62.5858 37.0701 66.0906 41.4284 66.0906C45.7867 66.0906 49.4079 62.5211 49.4079 58.111V8.97953C49.4079 4.56946 45.8385 1 41.4284 1C37.4322 1 34.1343 3.94869 33.5524 7.77679C27.5128 8.3329 22.7665 13.4154 22.7665 19.5973C22.7665 20.5802 22.8958 21.5243 23.1286 22.4425C18.6539 24.1497 15.4595 28.4692 15.4595 33.5388Z" stroke="#3B4356" stroke-width="1.5" stroke-linecap="round" stroke-linejoin="round"/>
<path d="M25.4447 26.2189C23.854 24.292 22.897 21.8218 22.897 19.1318C22.897 12.9758 27.889 7.98375 34.045 7.98375C37.7179 7.98375 40.9769 9.75556 43.0074 12.4973" stroke="#3B4356" stroke-width="1.5" stroke-linecap="round" stroke-linejoin="round"/>
<path d="M25.4447 39.8889C23.854 41.8158 22.897 44.286 22.897 46.976C22.897 53.132 27.889 58.124 34.045 58.124C37.7179 58.124 40.9769 56.3522 43.0074 53.6105" stroke="#3B4356" stroke-width="1.5" stroke-linecap="round" stroke-linejoin="round"/>
<path d="M30.1372 38.4791C33.5903 38.4791 36.3837 41.2725 36.3837 44.7256" stroke="#3B4356" stroke-width="1.5" stroke-linecap="round" stroke-linejoin="round"/>
<path d="M30.1372 26.5939C33.5903 26.5939 36.3837 23.8004 36.3837 20.3473" stroke="#3B4356" stroke-width="1.5" stroke-linecap="round" stroke-linejoin="round"/>
<path d="M65.2887 82.2176H60.5812V73.876H38.5697V82.2176H33.8621C15.7175 82.2176 1 96.9351 1 115.08V131H98.1637V115.08C98.1637 96.9351 83.4463 82.2176 65.3016 82.2176H65.2887Z" fill="url(#paint0_linear_1246_19748)"/>
<path d="M65.2887 82.2176H60.5812V73.876H38.5697V82.2176H33.8621C15.7175 82.2176 1 96.9351 1 115.08V131H98.1637V115.08C98.1637 96.9351 83.4463 82.2176 65.3016 82.2176H65.2887Z" stroke="#3B4356" stroke-width="1.5" stroke-linecap="round" stroke-linejoin="round"/>
<path d="M20.8481 107.217V131" stroke="#3B4356" stroke-width="1.5" stroke-linecap="round" stroke-linejoin="round"/>
<path d="M78.2944 107.217V131" stroke="#3B4356" stroke-width="1.5" stroke-linecap="round" stroke-linejoin="round"/>
<path d="M38.5664 78.9199V89.9903" stroke="#3B4356" stroke-width="1.5" stroke-linecap="round" stroke-linejoin="round"/>
<path d="M60.5781 78.9716V90.055" stroke="#3B4356" stroke-width="1.5" stroke-linecap="round" stroke-linejoin="round"/>
<defs>
<linearGradient id="paint0_linear_1246_19748" x1="49.5754" y1="131" x2="49.5754" y2="73.876" gradientUnits="userSpaceOnUse">
<stop offset="0.03" stop-color="#A3A5AB"/>
<stop offset="0.44" stop-color="#A3A5AB" stop-opacity="0"/>
</linearGradient>
</defs>
</svg>
