<svg width="119" height="122" viewBox="0 0 119 122" fill="none" xmlns="http://www.w3.org/2000/svg">
<path d="M58.2268 1.00012C51.4675 1.00012 45.6938 5.17778 43.3343 11.0903C42.5154 10.9654 41.6965 10.8821 40.836 10.8821C32.5223 10.8821 25.6798 17.2111 24.8748 25.3166C19.0038 25.4137 14.271 30.1882 14.271 36.0869C14.271 41.9855 19.101 46.8571 25.0413 46.8571H91.3983C97.3526 46.8571 102.169 42.0272 102.169 36.0869C102.169 30.6878 98.1992 26.2326 93.0222 25.4415C92.2727 17.2805 85.4163 10.8821 77.0471 10.8821C75.7286 10.8821 74.4378 11.0626 73.2164 11.3679C70.9125 5.31657 65.0832 1.00012 58.2268 1.00012Z" fill="#14A5F8"/>
<path d="M58.2268 1.00012C51.4675 1.00012 45.6938 5.17778 43.3343 11.0903C42.5154 10.9654 41.6965 10.8821 40.836 10.8821C32.5223 10.8821 25.6798 17.2111 24.8748 25.3166C19.0038 25.4137 14.271 30.1882 14.271 36.0869C14.271 41.9855 19.101 46.8571 25.0413 46.8571H91.3983C97.3526 46.8571 102.169 42.0272 102.169 36.0869C102.169 30.6878 98.1992 26.2326 93.0222 25.4415C92.2727 17.2805 85.4163 10.8821 77.0471 10.8821C75.7286 10.8821 74.4378 11.0626 73.2164 11.3679C70.9125 5.31657 65.0832 1.00012 58.2268 1.00012Z" stroke="#3B4356" stroke-width="1.5" stroke-linecap="round" stroke-linejoin="round"/>
<path d="M68.1069 14.4768C70.7162 12.3256 74.0473 11.0348 77.6837 11.0348C85.9974 11.0348 92.7427 17.7801 92.7427 26.0938C92.7427 31.0487 90.3416 35.4484 86.6497 38.1965" stroke="#3B4356" stroke-width="1.5" stroke-linecap="round" stroke-linejoin="round"/>
<path d="M49.649 14.4768C47.0396 12.3256 43.7086 11.0348 40.0722 11.0348C31.7585 11.0348 25.0132 17.7801 25.0132 26.0938C25.0132 31.0487 27.4143 35.4484 31.1062 38.1965" stroke="#3B4356" stroke-width="1.5" stroke-linecap="round" stroke-linejoin="round"/>
<path d="M67.6226 29.2583C67.6226 24.5949 71.3977 20.8197 76.0612 20.8197" stroke="#3B4356" stroke-width="1.5" stroke-linecap="round" stroke-linejoin="round"/>
<path d="M51.5504 29.2583C51.5504 24.5949 47.7753 20.8197 43.1118 20.8197" stroke="#3B4356" stroke-width="1.5" stroke-linecap="round" stroke-linejoin="round"/>
<path d="M117.322 89.064C116.392 84.0536 111.59 80.7503 106.58 81.6663L96.8503 83.8037L74.0189 97.1278L74.4769 97.0445L73.769 97.4609L117.322 89.0501V89.064Z" fill="url(#paint0_linear_1246_19686)"/>
<path d="M111.576 75.3096C109.023 70.896 103.388 69.3832 98.9741 71.937L96.6701 73.2694L103.235 66.3575C99.557 62.6795 93.5889 62.6795 89.897 66.3575L82.0413 74.4769L87.2183 65.5109C82.5548 62.8183 76.5867 64.4144 73.8941 69.0779L68.5645 78.3214L55.4624 74.9488H60.3202C65.1085 74.9488 68.9948 71.0626 68.9948 66.2743H34.3381C23.8037 66.2743 12.8668 65.9273 6.60724 76.0036C1.55517 84.123 1 94.7267 1 104.026V121H34.3381V97.1556H74.0191L74.3244 96.8225L111.563 75.3235L111.576 75.3096Z" fill="url(#paint1_linear_1246_19686)"/>
<path d="M117.322 89.064C116.392 84.0536 111.59 80.7503 106.58 81.6663L96.8503 83.8037L74.0189 97.1278L74.4769 97.0445L73.769 97.4609L117.322 89.0501V89.064Z" stroke="#3B4356" stroke-width="1.5" stroke-linecap="round" stroke-linejoin="round"/>
<path d="M111.576 75.3096C109.023 70.896 103.388 69.3832 98.9741 71.937L96.6701 73.2694L103.235 66.3575C99.557 62.6795 93.5889 62.6795 89.897 66.3575L82.0413 74.4769L87.2183 65.5109C82.5548 62.8183 76.5867 64.4144 73.8941 69.0779L68.5645 78.3214L55.4624 74.9488H60.3202C65.1085 74.9488 68.9948 71.0626 68.9948 66.2743H34.3381C23.8037 66.2743 12.8668 65.9273 6.60724 76.0036C1.55517 84.123 1 94.7267 1 104.026V121H34.3381V97.1556H74.0191L74.3244 96.8225L111.563 75.3235L111.576 75.3096Z" stroke="#3B4356" stroke-width="1.5" stroke-linecap="round" stroke-linejoin="round"/>
<path d="M55.4493 74.9488H32.3125" stroke="#3B4356" stroke-width="1.5" stroke-linecap="round" stroke-linejoin="round"/>
<path d="M87.2053 65.511L68.9956 97.1418" stroke="#3B4356" stroke-width="1.5" stroke-linecap="round" stroke-linejoin="round"/>
<path d="M101.682 67.9814L72.23 97.1417" stroke="#3B4356" stroke-width="1.5" stroke-linecap="round" stroke-linejoin="round"/>
<defs>
<linearGradient id="paint0_linear_1246_19686" x1="95.5318" y1="97.4748" x2="95.5318" y2="81.5137" gradientUnits="userSpaceOnUse">
<stop offset="0.03" stop-color="#A3A5AB"/>
<stop offset="0.45" stop-color="#A3A5AB" stop-opacity="0"/>
</linearGradient>
<linearGradient id="paint1_linear_1246_19686" x1="56.2813" y1="120.986" x2="56.2813" y2="63.5956" gradientUnits="userSpaceOnUse">
<stop offset="0.03" stop-color="#A3A5AB"/>
<stop offset="0.45" stop-color="#A3A5AB" stop-opacity="0"/>
</linearGradient>
</defs>
</svg>
