<svg width="115" height="102" viewBox="0 0 115 102" fill="none" xmlns="http://www.w3.org/2000/svg">
<path d="M73.4749 39.7378C76.4222 21.5321 64.0458 4.38128 45.8401 1.434C27.6344 -1.51329 10.4835 10.8631 7.53624 29.0688C7.02509 32.2119 6.98159 35.3332 7.34049 38.3457L1 54.8657L7.00335 55.8337L8.87398 76.7257L11.4079 77.5413C15.0186 78.7159 18.9121 78.6942 22.5228 77.487L8.31932 101H47.0473L66.6233 55.2029C70.0926 50.8635 72.5288 45.5998 73.4749 39.7269V39.7378Z" fill="url(#paint0_linear_1246_19731)"/>
<path d="M73.4749 39.7378C76.4222 21.5321 64.0458 4.38128 45.8401 1.434C27.6344 -1.51329 10.4835 10.8631 7.53624 29.0688C7.02509 32.2119 6.98159 35.3332 7.34049 38.3457L1 54.8657L7.00335 55.8337L8.87398 76.7257L11.4079 77.5413C15.0186 78.7159 18.9121 78.6942 22.5228 77.487L8.31932 101H47.0473L66.6233 55.2029C70.0926 50.8635 72.5288 45.5998 73.4749 39.7269V39.7378Z" stroke="#3B4356" stroke-width="1.5" stroke-linecap="round" stroke-linejoin="round"/>
<path d="M41.5331 39.7378C38.5858 21.5321 50.9623 4.38128 69.168 1.434C87.3738 -1.51329 104.525 10.8631 107.472 29.0688C107.983 32.2119 108.026 35.3332 107.668 38.3457L114.008 54.8657L108.005 55.8337L106.134 76.7257L103.6 77.5413C99.9894 78.7159 96.0959 78.6942 92.4852 77.487L106.689 101H67.9608L48.3847 55.2029C44.9154 50.8635 42.4793 45.5998 41.5331 39.7269V39.7378Z" fill="url(#paint1_linear_1246_19731)"/>
<path d="M41.5331 39.7378C38.5858 21.5321 50.9623 4.38128 69.168 1.434C87.3738 -1.51329 104.525 10.8631 107.472 29.0688C107.983 32.2119 108.026 35.3332 107.668 38.3457L114.008 54.8657L108.005 55.8337L106.134 76.7257L103.6 77.5413C99.9894 78.7159 96.0959 78.6942 92.4852 77.487L106.689 101H67.9608L48.3847 55.2029C44.9154 50.8635 42.4793 45.5998 41.5331 39.7269V39.7378Z" stroke="#3B4356" stroke-width="1.5" stroke-linecap="round" stroke-linejoin="round"/>
<path d="M57.4986 49.9717C65.9257 49.9717 72.7571 43.1403 72.7571 34.7133C72.7571 26.2862 65.9257 19.4548 57.4986 19.4548C49.0716 19.4548 42.2402 26.2862 42.2402 34.7133C42.2402 43.1403 49.0716 49.9717 57.4986 49.9717Z" fill="#14A5F8"/>
<path d="M57.4986 49.9717C65.9257 49.9717 72.7571 43.1403 72.7571 34.7133C72.7571 26.2862 65.9257 19.4548 57.4986 19.4548C49.0716 19.4548 42.2402 26.2862 42.2402 34.7133C42.2402 43.1403 49.0716 49.9717 57.4986 49.9717Z" stroke="#3B4356" stroke-width="1.5" stroke-linecap="round" stroke-linejoin="round"/>
<path d="M66.5912 31.5376H60.6749V25.6213H54.3344V31.5376H48.4072V37.889H54.3344V43.8053H60.6749V37.889H66.5912V31.5376Z" fill="white"/>
<path d="M66.5912 31.5376H60.6749V25.6213H54.3344V31.5376H48.4072V37.889H54.3344V43.8053H60.6749V37.889H66.5912V31.5376Z" stroke="#3B4356" stroke-width="1.5" stroke-linecap="round" stroke-linejoin="round"/>
<defs>
<linearGradient id="paint0_linear_1246_19731" x1="28.007" y1="104.198" x2="44.6641" y2="1.23969" gradientUnits="userSpaceOnUse">
<stop offset="0.03" stop-color="#A3A5AB"/>
<stop offset="0.44" stop-color="#A3A5AB" stop-opacity="0"/>
</linearGradient>
<linearGradient id="paint1_linear_1246_19731" x1="87.0032" y1="104.191" x2="70.3478" y2="1.24373" gradientUnits="userSpaceOnUse">
<stop offset="0.03" stop-color="#A3A5AB"/>
<stop offset="0.44" stop-color="#A3A5AB" stop-opacity="0"/>
</linearGradient>
</defs>
</svg>
