<svg width="1440" height="1018" viewBox="0 0 1440 1018" fill="none" xmlns="http://www.w3.org/2000/svg">
<g opacity="0.2">
<path d="M-263.388 558C-269.388 493.333 -233.788 360.3 -43.3882 345.5C194.612 327 174.112 90.5001 460.612 111.5C747.112 132.5 902.112 126 964.612 1" stroke="white" stroke-opacity="0.4"/>
<path d="M805.612 1017C799.612 952.333 835.212 819.3 1025.61 804.5C1263.61 786 1243.11 549.5 1529.61 570.5C1816.11 591.5 1971.11 585 2033.61 460" stroke="white" stroke-opacity="0.4"/>
</g>
<path opacity="0.2" d="M-212.484 579.857C-218.484 515.191 -182.884 382.157 7.51613 367.357C245.516 348.857 225.016 112.357 511.516 133.357C798.016 154.357 953.016 147.857 1015.52 22.8572" stroke="white"/>
<path opacity="0.2" d="M-161.579 601.714C-167.579 537.048 -131.979 404.014 58.4214 389.214C296.421 370.714 275.921 134.214 562.421 155.214C848.921 176.214 1003.92 169.714 1066.42 44.7142" stroke="white"/>
<path opacity="0.2" d="M-110.674 623.572C-116.674 558.905 -81.0743 425.872 109.326 411.072C347.326 392.572 326.826 156.072 613.326 177.072C899.826 198.072 1054.83 191.572 1117.33 66.5715" stroke="white"/>
<path opacity="0.2" d="M-59.769 645.429C-65.769 580.762 -30.169 447.729 160.231 432.929C398.231 414.429 377.731 177.929 664.231 198.929C950.731 219.929 1105.73 213.428 1168.23 88.4285" stroke="white"/>
<path opacity="0.2" d="M-8.86473 667.286C-14.8647 602.619 20.7353 469.586 211.135 454.786C449.135 436.286 428.635 199.786 715.135 220.786C1001.64 241.786 1156.64 235.286 1219.14 110.286" stroke="white"/>
<path opacity="0.2" d="M42.0405 689.143C36.0405 624.476 71.6405 491.443 262.041 476.643C500.041 458.143 479.541 221.643 766.041 242.643C1052.54 263.643 1207.54 257.143 1270.04 132.143" stroke="white"/>
<path opacity="0.2" d="M92.9448 711C86.9448 646.333 122.545 513.3 312.945 498.5C550.945 480 530.445 243.5 816.945 264.5C1103.44 285.5 1258.44 279 1320.94 154" stroke="white"/>
<path opacity="0.2" d="M143.85 732.857C137.85 668.191 173.45 535.157 363.85 520.357C601.85 501.857 581.35 265.357 867.85 286.357C1154.35 307.357 1309.35 300.857 1371.85 175.857" stroke="white"/>
<path opacity="0.2" d="M194.754 754.714C188.754 690.048 224.354 557.014 414.754 542.214C652.754 523.714 632.254 287.214 918.754 308.214C1205.25 329.214 1360.25 322.714 1422.75 197.714" stroke="white"/>
<path opacity="0.2" d="M245.66 776.572C239.66 711.905 275.26 578.872 465.66 564.072C703.66 545.572 683.16 309.072 969.66 330.072C1256.16 351.072 1411.16 344.572 1473.66 219.572" stroke="white"/>
<path opacity="0.2" d="M296.564 798.429C290.564 733.762 326.164 600.729 516.564 585.929C754.564 567.429 734.064 330.929 1020.56 351.929C1307.06 372.929 1462.06 366.428 1524.56 241.428" stroke="white"/>
<path opacity="0.2" d="M347.469 820.286C341.469 755.619 377.069 622.586 567.469 607.786C805.469 589.286 784.969 352.786 1071.47 373.786C1357.97 394.786 1512.97 388.286 1575.47 263.286" stroke="white"/>
<path opacity="0.2" d="M398.374 842.143C392.374 777.476 427.974 644.443 618.374 629.643C856.374 611.143 835.874 374.643 1122.37 395.643C1408.87 416.643 1563.87 410.143 1626.37 285.143" stroke="white"/>
<path opacity="0.2" d="M449.278 864C443.278 799.333 478.878 666.3 669.278 651.5C907.278 633 886.778 396.5 1173.28 417.5C1459.78 438.5 1614.78 432 1677.28 307" stroke="white"/>
<path opacity="0.2" d="M500.183 885.857C494.183 821.191 529.783 688.157 720.183 673.357C958.183 654.857 937.683 418.357 1224.18 439.357C1510.68 460.357 1665.68 453.857 1728.18 328.857" stroke="white"/>
<path opacity="0.2" d="M551.088 907.714C545.088 843.048 580.688 710.014 771.088 695.214C1009.09 676.714 988.588 440.214 1275.09 461.214C1561.59 482.214 1716.59 475.714 1779.09 350.714" stroke="white"/>
<path opacity="0.2" d="M601.993 929.572C595.993 864.905 631.593 731.872 821.993 717.072C1059.99 698.572 1039.49 462.072 1325.99 483.072C1612.49 504.072 1767.49 497.572 1829.99 372.572" stroke="white"/>
<path opacity="0.2" d="M652.897 951.429C646.897 886.762 682.497 753.729 872.897 738.929C1110.9 720.429 1090.4 483.929 1376.9 504.929C1663.4 525.929 1818.4 519.428 1880.9 394.428" stroke="white"/>
<path opacity="0.2" d="M703.802 973.286C697.802 908.619 733.402 775.586 923.802 760.786C1161.8 742.286 1141.3 505.786 1427.8 526.786C1714.3 547.786 1869.3 541.286 1931.8 416.286" stroke="white"/>
<path opacity="0.2" d="M754.707 995.143C748.707 930.476 784.307 797.443 974.707 782.643C1212.71 764.143 1192.21 527.643 1478.71 548.643C1765.21 569.643 1920.21 563.143 1982.71 438.143" stroke="white"/>
</svg>
