<svg width="64" height="64" viewBox="0 0 64 64" fill="none" xmlns="http://www.w3.org/2000/svg">
<path d="M0 32C0 8.72727 8.72727 0 32 0C55.2727 0 64 8.72727 64 32C64 55.2727 55.2727 64 32 64C8.72727 64 0 55.2727 0 32Z" fill="#14A5F8"/>
<path d="M41.3446 43.9812C45.3291 44.1803 48.4656 42.7951 50.7513 39.8201C54.1855 35.3533 53.0791 28.8424 48.6229 25.5421C46.2277 23.77 43.5292 23.1531 40.5275 23.6831C40.4096 23.7055 40.2888 23.669 40.2046 23.5821C39.9575 23.3354 39.7132 23.097 39.4745 22.8615C35.5406 19.0284 29.3659 19.0845 25.3814 22.7998C25.1314 23.0325 24.8703 23.2569 24.6035 23.4728C24.5137 23.5457 24.4098 23.5709 24.2975 23.5541C20.591 23.0325 17.5499 23.9382 15.1716 26.274C11.2124 30.1575 10.8557 36.4273 14.6914 40.5716C17.2017 43.283 20.0799 44.0373 23.8342 43.97C26.6421 43.9196 29.4641 43.9167 32.2946 43.9588L41.3446 43.9812ZM33.5666 41.4044C30.2588 41.3903 26.8359 41.3931 23.2978 41.4156C21.7647 41.424 20.5011 41.2417 19.5043 40.8632C14.961 39.1387 13.192 33.6962 15.7051 29.6079C17.2074 27.1628 19.9901 25.7244 22.8654 25.9683C22.9833 25.9767 23.0227 26.0384 22.9862 26.1506L22.2589 28.3966C22.2168 28.5228 22.1213 28.6265 21.9978 28.6798C20.9953 29.0948 18.3109 30.6566 19.4734 32.0446C19.8019 32.4372 20.386 32.496 20.7847 32.1736C21.3154 31.7474 21.7141 31.1389 22.3544 30.8501C23.8398 30.1855 25.1792 30.4463 26.3698 31.6352C26.9285 32.196 27.0689 33.5616 27.8383 33.7466C28.9362 34.0074 29.4361 32.9615 29.071 32.0754C28.3213 30.2556 27.0409 29.0808 25.2353 28.5564C24.9545 28.4751 24.8675 28.2984 24.9714 28.0265C26.249 24.6981 28.5375 22.8895 31.8397 22.5951C33.8389 22.4185 35.7315 23.0437 37.523 24.4738C37.6746 24.5944 37.6662 24.7009 37.5005 24.7991C36.7536 25.2337 36.06 25.7356 35.4198 26.302C35.3131 26.3973 35.1643 26.431 35.0267 26.3973C33.3251 25.9851 32.0306 25.8113 30.2756 26.445C30.0145 26.5403 29.8123 26.7534 29.7337 27.0226C29.6354 27.3507 29.6551 27.6395 29.7955 27.8863C30.0342 28.3181 30.3992 28.5003 30.8878 28.433C31.1882 28.3938 31.4915 28.3293 31.7976 28.248C33.2324 27.8638 34.9116 28.4443 35.9028 29.4397C36.6048 30.1407 37.0906 32.0951 38.4384 31.352C39.7357 30.6398 38.1127 28.705 37.5455 28.0938C37.436 27.9732 37.4472 27.8666 37.5764 27.7713C39.935 26.0384 42.4257 25.615 45.0512 26.5039C49.4147 27.9788 51.3466 32.9279 49.4597 37.0105C48.3337 39.4472 45.857 41.1997 43.1979 41.3819C42.2123 41.4492 41.2127 41.4632 40.1934 41.424L33.5666 41.4044Z" fill="white"/>
<path d="M46.7391 33.9901C45.484 33.8976 44.7314 33.2639 44.4759 32.089C44.3804 31.6347 44.5433 31.1104 44.6669 30.6702C44.987 29.4925 43.4229 28.842 42.8136 29.7617C42.2211 30.6589 42.2548 31.9432 42.4879 33.0115C42.5581 33.3368 42.5412 33.648 42.4373 33.9452C41.5697 36.438 39.0959 37.6465 36.5912 36.7941C36.5827 36.7913 36.5743 36.7885 36.5631 36.7829C36.4732 36.7352 36.4395 36.6259 36.4845 36.5361C36.9478 35.6585 37.5936 33.6032 36.6698 32.8405C36.1952 32.4479 35.7123 32.4872 35.2209 32.9666C35.0861 33.0956 35.0187 33.2527 35.0159 33.4349C34.9569 36.1352 33.6316 37.2652 31.0398 36.8278C30.5653 36.7492 30.2087 36.9175 29.9672 37.3325C29.9138 37.425 29.8801 37.5231 29.8661 37.6213C29.7678 38.283 30.043 38.7008 30.686 38.8747C32.0423 39.2392 33.3283 39.0934 34.5442 38.4373C34.6509 38.3812 34.766 38.3644 34.8839 38.3896C35.5269 38.5298 36.0857 38.9195 36.7456 39.0373C39.9832 39.6346 42.4093 38.283 44.0996 35.5323C44.1755 35.4117 44.2765 35.3837 44.4001 35.4538C45.3408 35.9669 46.9918 36.6203 47.7247 35.5716C48.2582 34.8201 47.4917 34.0434 46.7391 33.9901Z" fill="white"/>
<path d="M24.1469 35.7793C22.8243 36.7299 21.5046 36.8056 20.1876 36.0037C19.5755 35.6307 19.1234 34.711 18.2867 34.9157C17.9413 34.9998 17.6998 35.2073 17.5622 35.541C17.2898 36.2027 17.8205 36.8505 18.2979 37.2402C20.154 38.7684 22.1925 39.0628 24.408 38.1235C25.1156 37.8263 26.2472 37.058 25.7334 36.1411C25.3908 35.5242 24.7169 35.37 24.1469 35.7793Z" fill="white"/>
</svg>
