<svg width="28" height="28" viewBox="0 0 28 28" fill="none" xmlns="http://www.w3.org/2000/svg">
<rect width="28" height="28" rx="4" fill="#14A5F8"/>
<path d="M18.1881 18.9914C19.9788 19.0826 21.3884 18.4478 22.4157 17.0842C23.959 15.0369 23.4618 12.0528 21.4591 10.5401C20.3826 9.72791 19.1699 9.44517 17.8209 9.68807C17.7679 9.69835 17.7136 9.68164 17.6757 9.6418C17.5647 9.52871 17.4549 9.41947 17.3476 9.31151C15.5796 7.55469 12.8046 7.58039 11.0139 9.28324C10.9015 9.38991 10.7842 9.49272 10.6643 9.59168C10.6239 9.6251 10.5772 9.63666 10.5267 9.62895C8.86096 9.38991 7.49426 9.80502 6.42538 10.8756C4.64601 12.6555 4.48575 15.5292 6.20958 17.4286C7.33777 18.6714 8.63128 19.0171 10.3185 18.9863C11.5805 18.9631 12.8488 18.9618 14.1208 18.9811L18.1881 18.9914ZM14.6925 17.8103C13.2059 17.8039 11.6676 17.8052 10.0775 17.8155C9.38846 17.8193 8.82058 17.7358 8.37258 17.5623C6.33073 16.7719 5.5357 14.2774 6.66515 12.4036C7.3403 11.283 8.5909 10.6237 9.88315 10.7355C9.93615 10.7393 9.95382 10.7676 9.93741 10.819L9.61056 11.8484C9.59163 11.9063 9.54873 11.9538 9.4932 11.9782C9.04268 12.1684 7.83625 12.8843 8.3587 13.5204C8.50635 13.7004 8.76884 13.7274 8.94803 13.5796C9.18654 13.3842 9.36574 13.1053 9.65347 12.973C10.321 12.6684 10.923 12.7879 11.4581 13.3328C11.7092 13.5898 11.7723 14.2157 12.1181 14.3005C12.6115 14.4201 12.8361 13.9407 12.6721 13.5346C12.3351 12.7005 11.7597 12.162 10.9482 11.9217C10.822 11.8844 10.7829 11.8035 10.8296 11.6788C11.4038 10.1533 12.4323 9.32437 13.9164 9.18942C14.8149 9.10846 15.6654 9.39505 16.4706 10.0505C16.5387 10.1057 16.5349 10.1546 16.4605 10.1996C16.1248 10.3988 15.8131 10.6288 15.5254 10.8884C15.4774 10.9321 15.4105 10.9475 15.3487 10.9321C14.5839 10.7432 14.0022 10.6635 13.2135 10.954C13.0961 10.9977 13.0052 11.0953 12.9699 11.2187C12.9257 11.3691 12.9346 11.5014 12.9977 11.6145C13.1049 11.8125 13.269 11.896 13.4886 11.8651C13.6236 11.8472 13.7599 11.8176 13.8974 11.7803C14.5423 11.6043 15.297 11.8703 15.7424 12.3265C16.0579 12.6478 16.2762 13.5436 16.882 13.203C17.465 12.8766 16.7356 11.9898 16.4807 11.7096C16.4315 11.6544 16.4365 11.6055 16.4946 11.5618C17.5546 10.7676 18.674 10.5735 19.8539 10.9809C21.815 11.6569 22.6832 13.9253 21.8352 15.7965C21.3291 16.9133 20.2161 17.7165 19.021 17.8001C18.578 17.8309 18.1288 17.8373 17.6707 17.8193L14.6925 17.8103Z" fill="white"/>
<path d="M20.6123 14.4123C20.0482 14.3699 19.71 14.0795 19.5952 13.541C19.5523 13.3328 19.6255 13.0924 19.681 12.8907C19.8249 12.3509 19.122 12.0527 18.8481 12.4743C18.5818 12.8855 18.597 13.4741 18.7017 13.9638C18.7333 14.1129 18.7257 14.2555 18.679 14.3918C18.2891 15.5343 17.1773 16.0882 16.0516 15.6975C16.0478 15.6962 16.044 15.6949 16.039 15.6923C15.9986 15.6705 15.9835 15.6204 16.0037 15.5792C16.2119 15.177 16.5021 14.235 16.087 13.8854C15.8737 13.7055 15.6566 13.7235 15.4358 13.9432C15.3752 14.0023 15.3449 14.0743 15.3437 14.1579C15.3172 15.3955 14.7215 15.9134 13.5567 15.7129C13.3435 15.6769 13.1832 15.754 13.0747 15.9442C13.0507 15.9866 13.0355 16.0316 13.0292 16.0766C12.9851 16.3799 13.1087 16.5714 13.3977 16.6511C14.0072 16.8181 14.5852 16.7513 15.1317 16.4506C15.1796 16.4249 15.2313 16.4172 15.2843 16.4287C15.5733 16.493 15.8245 16.6716 16.121 16.7256C17.5761 16.9994 18.6664 16.3799 19.4261 15.1192C19.4602 15.0639 19.5056 15.051 19.5611 15.0832C19.9839 15.3184 20.7259 15.6178 21.0553 15.1372C21.2951 14.7927 20.9505 14.4367 20.6123 14.4123Z" fill="white"/>
<path d="M10.4584 15.2323C9.86406 15.668 9.27094 15.7027 8.67908 15.3351C8.40397 15.1642 8.2008 14.7426 7.82473 14.8365C7.66951 14.875 7.56098 14.9701 7.49915 15.123C7.37674 15.4263 7.61525 15.7232 7.82978 15.9019C8.66394 16.6023 9.58012 16.7372 10.5758 16.3067C10.8938 16.1705 11.4024 15.8183 11.1715 15.3981C11.0175 15.1153 10.7146 15.0446 10.4584 15.2323Z" fill="white"/>
</svg>
