<svg width="64" height="64" viewBox="0 0 64 64" fill="none" xmlns="http://www.w3.org/2000/svg">
<g id="Group 37033">
<path id="One UI Background" d="M0 32C0 8.72727 8.72727 0 32 0C55.2727 0 64 8.72727 64 32C64 55.2727 55.2727 64 32 64C8.72727 64 0 55.2727 0 32Z" fill="#14A5F8"/>
<g id="Group">
<path id="Vector" d="M41.3446 43.9812C45.3291 44.1803 48.4656 42.7951 50.7513 39.8201C54.1855 35.3533 53.0791 28.8424 48.6229 25.5421C46.2277 23.77 43.5292 23.1531 40.5275 23.6831C40.4096 23.7055 40.2888 23.669 40.2046 23.5821C39.9575 23.3354 39.7132 23.097 39.4745 22.8615C35.5406 19.0284 29.3659 19.0845 25.3814 22.7998C25.1314 23.0325 24.8703 23.2569 24.6035 23.4728C24.5137 23.5457 24.4098 23.5709 24.2975 23.5541C20.591 23.0325 17.5499 23.9382 15.1716 26.274C11.2124 30.1575 10.8557 36.4273 14.6914 40.5716C17.2017 43.283 20.0799 44.0373 23.8342 43.97C26.6421 43.9196 29.4641 43.9167 32.2946 43.9588L41.3446 43.9812ZM33.5666 41.4044C30.2588 41.3903 26.8359 41.3931 23.2978 41.4156C21.7647 41.424 20.5011 41.2417 19.5043 40.8632C14.961 39.1387 13.192 33.6962 15.7051 29.6079C17.2074 27.1628 19.9901 25.7244 22.8654 25.9683C22.9833 25.9767 23.0227 26.0384 22.9862 26.1506L22.2589 28.3966C22.2168 28.5228 22.1213 28.6265 21.9978 28.6798C20.9953 29.0948 18.3109 30.6566 19.4734 32.0446C19.8019 32.4372 20.386 32.496 20.7847 32.1736C21.3154 31.7474 21.7141 31.1389 22.3544 30.8501C23.8398 30.1855 25.1792 30.4463 26.3698 31.6352C26.9285 32.196 27.0689 33.5616 27.8383 33.7466C28.9362 34.0074 29.4361 32.9615 29.071 32.0754C28.3213 30.2556 27.0409 29.0808 25.2353 28.5564C24.9545 28.4751 24.8675 28.2984 24.9714 28.0265C26.249 24.6981 28.5375 22.8895 31.8397 22.5951C33.8389 22.4185 35.7315 23.0437 37.523 24.4738C37.6746 24.5944 37.6662 24.7009 37.5005 24.7991C36.7536 25.2337 36.06 25.7356 35.4198 26.302C35.3131 26.3973 35.1643 26.431 35.0267 26.3973C33.3251 25.9851 32.0306 25.8113 30.2756 26.445C30.0145 26.5403 29.8123 26.7534 29.7337 27.0226C29.6354 27.3507 29.6551 27.6395 29.7955 27.8863C30.0342 28.3181 30.3992 28.5003 30.8878 28.433C31.1882 28.3938 31.4915 28.3293 31.7976 28.248C33.2324 27.8638 34.9116 28.4443 35.9028 29.4397C36.6048 30.1407 37.0906 32.0951 38.4384 31.352C39.7357 30.6398 38.1127 28.705 37.5455 28.0938C37.436 27.9732 37.4472 27.8666 37.5764 27.7713C39.935 26.0384 42.4257 25.615 45.0512 26.5039C49.4147 27.9788 51.3466 32.9279 49.4597 37.0105C48.3337 39.4472 45.857 41.1997 43.1979 41.3819C42.2123 41.4492 41.2127 41.4632 40.1934 41.424L33.5666 41.4044Z" fill="white"/>
<path id="Vector_2" d="M46.7386 33.9901C45.4835 33.8976 44.7309 33.2639 44.4754 32.089C44.38 31.6348 44.5428 31.1104 44.6664 30.6702C44.9865 29.4925 43.4224 28.842 42.8131 29.7617C42.2206 30.659 42.2543 31.9432 42.4874 33.0115C42.5576 33.3368 42.5407 33.648 42.4368 33.9453C41.5692 36.438 39.0954 37.6466 36.5907 36.7941C36.5822 36.7913 36.5738 36.7885 36.5626 36.7829C36.4727 36.7353 36.439 36.6259 36.484 36.5362C36.9473 35.6585 37.5931 33.6032 36.6693 32.8405C36.1947 32.4479 35.7118 32.4872 35.2204 32.9667C35.0856 33.0957 35.0182 33.2527 35.0154 33.4349C34.9564 36.1352 33.6311 37.2652 31.0393 36.8278C30.5648 36.7493 30.2082 36.9175 29.9667 37.3325C29.9133 37.425 29.8796 37.5232 29.8656 37.6213C29.7673 38.2831 30.0425 38.7009 30.6855 38.8747C32.0418 39.2392 33.3278 39.0934 34.5437 38.4373C34.6504 38.3812 34.7655 38.3644 34.8834 38.3896C35.5265 38.5298 36.0852 38.9196 36.7451 39.0373C39.9827 39.6346 42.4088 38.2831 44.0992 35.5323C44.175 35.4118 44.2761 35.3837 44.3996 35.4538C45.3403 35.967 46.9914 36.6203 47.7242 35.5716C48.2578 34.8201 47.4912 34.0434 46.7386 33.9901Z" fill="white"/>
<path id="Vector_3" d="M24.147 35.7793C22.8245 36.7298 21.5047 36.8055 20.1878 36.0036C19.5756 35.6307 19.1235 34.711 18.2868 34.9156C17.9414 34.9998 17.6999 35.2073 17.5623 35.5409C17.2899 36.2027 17.8207 36.8504 18.298 37.2402C20.1541 38.7684 22.1927 39.0628 24.4082 38.1234C25.1158 37.8262 26.2474 37.0579 25.7335 36.141C25.3909 35.5241 24.717 35.3699 24.147 35.7793Z" fill="white"/>
</g>
</g>
</svg>
